<?xml version="1.0" standalone="no"?> <!DOCTYPE svg PUBLIC "-//W3C//DTD SVG 1.0//EN" "http://www.w3.org/TR/2001/REC-SVG-20010904/DTD/svg10.dtd" > <svg xmlns="http://www.w3.org/2000/svg" width="100%" height="100%">
<defs >
<font horiz-adv-x="1143" ><font-face
    font-family="FK King Arthur"
    units-per-em="2048"
    panose-1="2 11 5 0 0 0 0 0 0 0"
    ascent="1987"
    descent="-811"
    alphabetic="0" />
<missing-glyph horiz-adv-x="1536" d="M256 0V1280H1280V0H256ZM1248 32V1248H288V32H1248Z" />
<glyph unicode=" " glyph-name="space" horiz-adv-x="717" />
<glyph unicode="!" glyph-name="exclam" horiz-adv-x="430" d="M219 1495L381 1282Q324 1092 285 858Q258 694 231 426H186Q152 768 115 965Q86 1104 33 1282L219 1495ZM211 342Q285 248 381 156L193 -18Q96 57 18 164L211 342Z" />
<glyph unicode="&quot;" glyph-name="quotedbl" horiz-adv-x="809" d="M608 1649L735 1481L631 952H588L455 1481L608 1649ZM240 1649L367 1481L262 952H219L86 1481L240 1649Z" />
<glyph unicode="#" glyph-name="numbersign" horiz-adv-x="1618" d="M1245 1120H1583L1528 965H1194L1083 657H1444L1386 502Q1362 504 1346 506Q1227 520 1165 520Q1110 520 1085 518Q1059 514 1032 502Q977 457 907 223Q885 147 850 0H676L858 502H545L379 0H199Q260
123 289 190Q379 397 379 473Q379 492 373 502Q352 512 315 518Q276 524 240 524Q172 524 96 514Q70 512 29 502L86 657H432L539 965H166L223 1120Q262 1112 287 1108Q365 1096 432 1096Q502 1096 532 1102Q561 1106 594 1120Q690 1200 741 1419Q758 1493 774 1626H967L784
1120Q815 1112 836 1110Q897 1100 952 1100Q987 1100 1020 1106Q1053 1110 1077 1120Q1157 1159 1212 1397Q1229 1475 1251 1626H1427L1245 1120ZM913 657L1024 965H711Q674 891 655 850Q598 723 598 676Q598 666 602 657Q616 649 649 645T717 641Q774 641 825
647Q874 651 913 657Z" />
<glyph unicode="$" glyph-name="dollar" horiz-adv-x="1096" d="M1022 608Q1022 420 1001 360Q954 223 856 139Q774 70 594 -6V-231H479V18L78 119L178 309L479 207V672Q408 627 369 602Q328 575 262 539Q172 602 121 710T70 938Q70 961 72 975Q72 987 78 1032Q109
1182 217 1278Q324 1372 479 1391V1534H594V1380L901 1313L825 1137L594 1194V784Q711 842 838 930Q930 848 971 786Q1022 707 1022 608ZM440 725L479 731V1214L274 1249Q225 1178 225 1063Q225 936 287 831Q346 725 440 725ZM729 123Q778 184 803 287Q825 389
825 489Q825 592 784 666Q743 737 668 737Q655 737 633 731Q608 725 594 721V174L729 123Z" />
<glyph unicode="%" glyph-name="percent" horiz-adv-x="1577" d="M676 1069Q678 1055 678 1030Q678 1004 678 993Q678 858 588 739Q522 651 377 545Q119 637 49 915Q43 940 39 967Q39 1128 133 1235Q195 1305 356 1397Q530 1317 602 1235Q664 1163 676 1069ZM1122
1397H1247L434 -14H309L1122 1397ZM1520 506L1528 424Q1528 319 1475 229Q1411 121 1227 -14Q1069 35 987 111Q883 207 883 348L879 385Q879 526 979 647Q1053 737 1200 831Q1333 770 1403 709Q1499 623 1520 506ZM465 694Q559 793 559 907Q559 940 555 965Q549
987 535 1032Q500 1118 428 1182Q354 1243 258 1264Q162 1155 162 1032Q162 913 248 817Q332 719 465 694ZM1315 127Q1360 172 1382 227Q1403 283 1403 344Q1403 377 1397 407T1378 471Q1343 559 1272 618Q1200 678 1102 696Q1059 651 1034 588T1008 469Q1008 348
1094 252Q1178 154 1315 127Z" />
<glyph unicode="&amp;" glyph-name="ampersand" horiz-adv-x="1425" d="M1348 625L1356 612Q1272 475 1157 475Q1087 475 1010 543L877 438Q926 346 948 315Q995 250 1048 223T1155 195Q1257 195 1333 270L1352 262Q1309 90 1303 78Q1268 2 1163 -47Q1155 -49
1124 -53T1053 -57Q1004 -57 981 -51Q895 -31 836 37Q827 45 690 293Q639 178 602 121Q485 -53 350 -53Q326 -53 313 -51Q295 94 178 272Q141 332 66 422L426 745L236 1069Q213 1102 213 1133Q213 1169 246 1202Q279 1233 313 1264Q393 1348 573 1423Q633 1448
739 1483Q817 1427 862 1364Q905 1300 905 1221L897 1147Q877 1063 795 981Q745 932 639 850L850 479L1114 700Q1157 662 1206 641Q1255 618 1307 618L1348 625ZM739 1042L745 1108Q745 1157 731 1202Q717 1245 682 1282Q662 1300 635 1311Q606 1321 582 1321Q535
1321 500 1286T465 1202Q465 1184 471 1167Q475 1151 487 1130L612 895Q662 932 686 956Q727 997 739 1042ZM457 174L662 342L455 700L229 516L457 174Z" />
<glyph unicode="&apos;" glyph-name="quotesingle" horiz-adv-x="655" d="M350 1649L477 1481L373 952H330L197 1481L350 1649Z" />
<glyph unicode="(" glyph-name="parenleft" horiz-adv-x="596" d="M506 51L543 20L326 -287Q160 -104 82 117Q4 336 4 584Q4 907 131 1221Q256 1534 479 1776L506 1751Q350 1534 266 1296T182 813Q182 471 203 340Q246 70 383 35Q391 33 403 33Q426 33 457 39Q473
41 506 51Z" />
<glyph unicode=")" glyph-name="parenright" horiz-adv-x="596" d="M213 1776Q373 1595 452 1370T532 905Q532 586 408 272T63 -287L31 -254Q184 -41 266 197Q348 432 348 676Q348 930 285 1180Q211 1475 106 1475Q88 1475 49 1450Q43 1446 31 1438L-4 1468L213 1776Z" />
<glyph unicode="*" glyph-name="asterisk" horiz-adv-x="788" d="M639 1219L735 1077L584 1001Q551 1049 514 1080T420 1147Q442 1026 502 938L387 817L281 956Q319 997 342 1044Q365 1092 383 1155Q328 1126 287 1094Q238 1053 207 1001L49 1069L139 1219Q174
1206 190 1202Q238 1190 285 1190L352 1196Q307 1241 264 1268Q219 1294 162 1307L176 1485L338 1446L334 1425Q334 1374 348 1327Q360 1280 387 1227Q412 1272 422 1317T432 1415V1440L602 1475L614 1307Q500 1274 414 1188H444Q510 1188 551 1194Q590 1198 639
1219Z" />
<glyph unicode="+" glyph-name="plus" horiz-adv-x="1505" d="M1421 762V606L1319 543L1217 604L834 606Q827 565 825 539Q815 442 815 379Q815 268 840 195Q854 154 874 115Q879 106 889 92L834 4H674L633 92L674 195V606Q649 608 633 610Q512 625 444 625Q393
625 350 621T274 604Q258 594 211 557Q205 553 193 543L84 606V762L182 840L274 758L674 762Q682 786 684 805Q696 870 696 932Q696 1026 674 1137Q662 1171 637 1217Q633 1225 623 1239L674 1362H834L889 1239L840 1137L836 762Q866 754 889 752Q954 741 1018
741Q1073 741 1110 748Q1145 752 1186 768L1319 829L1421 762Z" />
<glyph unicode="," glyph-name="comma" horiz-adv-x="553" d="M289 362Q360 332 406 276Q444 227 459 166Q463 145 463 137Q463 59 356 -33Q313 -72 145 -182L98 -133Q203 -41 203 14Q203 78 184 104Q162 141 109 174L289 362Z" />
<glyph unicode="-" glyph-name="hyphen" horiz-adv-x="748" d="M635 713H674L586 444H164L139 387H94L184 637H608L635 713Z" />
<glyph unicode="." glyph-name="period" horiz-adv-x="543" d="M287 342Q373 233 459 156L268 -18Q219 25 178 66Q133 115 98 164L287 342Z" />
<glyph unicode="/" glyph-name="slash" horiz-adv-x="788" d="M537 1483Q543 1483 551 1483Q590 1483 666 1464Q694 1458 745 1442L119 -205H0Q47 -33 94 139Q205 528 309 858Q446 1292 537 1483Z" />
<glyph unicode="0" glyph-name="zero" horiz-adv-x="1034" d="M967 858Q973 823 975 770Q977 717 977 713Q977 494 856 311Q760 166 545 -14Q434 23 367 63Q283 113 217 195Q145 283 117 340Q80 410 55 520Q53 524 53 541Q53 555 53 565Q53 592 53 614Q53 637
55 655Q55 893 184 1085Q295 1249 508 1397Q705 1296 809 1186Q938 1049 967 858ZM684 186Q752 276 786 385Q821 492 821 606Q821 709 797 795Q760 944 639 1057Q516 1167 358 1212Q289 1112 250 1010Q211 905 211 807Q211 702 256 573Q360 268 684 186Z" />
<glyph unicode="1" glyph-name="one" horiz-adv-x="686" d="M623 244L655 211L408 -25L172 168Q197 188 209 203Q236 233 236 274Q236 360 244 539Q252 715 252 768Q252 874 250 918Q246 961 238 1033T211 1145Q190 1184 147 1219L63 1147L31 1182L281 1397Q367
1327 406 1264Q442 1198 455 1071Q465 944 465 721Q465 547 461 438Q457 328 451 240L539 168L623 244Z" />
<glyph unicode="2" glyph-name="two" horiz-adv-x="1024" d="M616 268Q713 268 797 250Q881 229 963 182L799 -14Q702 27 606 47Q510 68 424 68Q242 68 31 -14Q57 125 135 238Q190 317 309 422Q502 594 518 608Q602 692 655 791Q707 887 707 977Q707 1047 680
1112Q651 1176 588 1233L207 930L63 1077L457 1386L944 1096V1014Q944 821 809 684Q752 625 504 461Q287 315 180 174Q291 215 402 241T616 268Z" />
<glyph unicode="3" glyph-name="three" horiz-adv-x="1014" d="M940 494Q950 467 950 426Q950 373 938 322Q936 313 930 297Q930 158 748 72Q604 4 387 -14L29 289L182 438L608 74Q662 131 690 209Q719 285 719 362Q719 428 700 485Q680 543 639 592Q588 651 512
676Q434 700 344 700H289V758Q438 770 543 844Q629 905 659 983Q668 1004 670 1047Q670 1090 670 1114Q670 1239 588 1239Q575 1239 557 1231Q537 1223 518 1212L250 1014L119 1151L438 1391L895 1163Q897 1143 899 1122Q899 1102 899 1083Q899 961 827 874Q764
799 627 731Q760 686 815 651Q899 596 940 494Z" />
<glyph unicode="4" glyph-name="four" horiz-adv-x="1004" d="M922 612L969 444H729V225L813 164L881 219L905 182L694 -14L449 143Q498 203 512 230T526 295L524 444H70L10 637L563 1397Q653 1348 682 1317Q729 1266 729 1186V612H922ZM80 612H524V1100Q524 1116
518 1126Q512 1137 475 1178L74 637L80 612Z" />
<glyph unicode="5" glyph-name="five" horiz-adv-x="942" d="M549 977Q700 922 790 803T881 526L874 444Q848 254 711 135Q588 29 389 -14L-4 225L131 377L582 106Q727 254 727 420Q727 541 639 643T393 799L82 592L201 1366H803L739 1163H281L164 715L549 977Z" />
<glyph unicode="6" glyph-name="six" horiz-adv-x="993" d="M682 932Q807 877 874 788Q950 690 950 559Q950 377 813 219Q707 96 516 -14Q297 49 170 209Q41 369 41 592V600Q41 831 186 1051Q311 1239 526 1397L895 1233L745 1034L440 1233Q340 1118 291 979Q240
838 240 690L244 637L682 932ZM647 174Q715 223 745 287Q776 350 776 420Q776 539 707 627Q635 713 547 713Q526 713 473 698Q420 684 403 674L252 582Q295 410 387 313T647 174Z" />
<glyph unicode="7" glyph-name="seven" horiz-adv-x="1014" d="M952 1366V1313Q705 1006 596 743Q475 449 475 88L186 -35Q186 281 362 612Q508 885 770 1165L330 1176Q268 1176 215 1139Q195 1124 84 999L51 1024Q92 1096 139 1192Q172 1257 221 1366H952Z" />
<glyph unicode="8" glyph-name="eight" horiz-adv-x="983" d="M676 825Q788 784 854 709Q928 625 928 506Q928 324 815 184Q702 45 514 -14Q502 -18 475 -20Q449 -25 420 -25Q274 -25 186 34T59 221Q53 240 47 270Q41 301 41 317Q41 414 115 512Q172 590 270 662Q180
692 131 749T82 895L84 938Q100 1059 205 1192Q279 1284 408 1397Q633 1376 748 1303Q846 1239 877 1133L879 1083Q879 1004 815 930Q764 870 676 825ZM629 834Q690 881 709 903Q745 946 745 995V1024Q721 1130 549 1174Q442 1200 285 1200Q252 1155 233 1116Q207
1063 207 1020Q207 977 240 938Q283 885 420 862Q524 848 629 834ZM745 236Q793 262 813 299Q834 334 834 381Q834 420 811 463Q786 506 745 532Q668 584 539 614Q500 623 319 655Q252 598 221 541Q188 483 188 432Q188 328 301 258Q414 186 551 186Q664 186 745
236Z" />
<glyph unicode="9" glyph-name="nine" horiz-adv-x="993" d="M940 856V723Q940 498 793 299Q680 147 453 -18L96 164L233 338L565 168Q662 274 700 401Q739 528 739 686V743L301 438Q178 498 106 594Q35 688 35 813Q35 860 45 911Q78 1059 209 1192Q291 1276 469
1397Q727 1315 811 1237Q940 1118 940 856ZM520 655L731 795Q684 975 598 1067Q510 1159 334 1202Q266 1155 231 1090Q197 1022 197 952Q197 834 279 733Q360 633 451 633Q465 633 483 637Q502 641 520 655Z" />
<glyph unicode=":" glyph-name="colon" horiz-adv-x="522" d="M266 1024Q303 977 348 930Q391 881 438 834L248 657Q154 743 80 844L266 1024ZM266 342Q352 233 438 156L248 -18Q199 25 160 66Q115 115 80 164L266 342Z" />
<glyph unicode=";" glyph-name="semicolon" horiz-adv-x="532" d="M289 1024Q358 934 451 834L264 662Q217 702 172 749T94 844L289 1024ZM270 342Q322 301 375 260Q408 229 434 176Q395 53 317 -35Q254 -106 135 -182L90 -133Q184 -45 184 14Q184 74 90 174L270 342Z" />
<glyph unicode="&lt;" glyph-name="less" horiz-adv-x="768" d="M594 821H692L289 471L555 131H449L78 471L594 821Z" />
<glyph unicode="=" glyph-name="equal" horiz-adv-x="952" d="M279 713H883L766 590H162L279 713ZM199 457H801L684 334H80L199 457Z" />
<glyph unicode="&gt;" glyph-name="greater" horiz-adv-x="727" d="M303 821L657 471L156 131H47L459 481L182 821H303Z" />
<glyph unicode="?" glyph-name="question" horiz-adv-x="707" d="M477 1446Q553 1411 596 1331Q637 1251 637 1157Q637 1114 633 1100Q610 1010 463 803Q344 635 344 424H289L281 514Q281 551 283 566T309 707Q322 780 371 915Q414 1036 414 1108Q414 1182 371
1231Q326 1278 250 1278Q207 1278 150 1255Q92 1233 41 1212L152 1450Q207 1464 240 1473Q270 1479 285 1479Q340 1479 389 1473Q436 1464 477 1446ZM313 342Q352 291 395 244Q418 221 481 156L295 -18Q238 29 203 66Q162 111 127 164L313 342Z" />
<glyph unicode="@" glyph-name="at" horiz-adv-x="2058" d="M1352 1602Q1642 1550 1823 1356Q2001 1159 2001 872Q2001 666 1927 506T1710 236Q1657 195 1497 145Q1356 102 1282 94Q1147 176 1147 348L864 94H846Q768 172 735 229Q690 307 690 399Q690 516 752
627Q803 719 901 813L797 1108L831 1106Q891 1106 948 1128Q1006 1151 1049 1196L1352 1087L1415 1137L1427 1122Q1397 1073 1378 1032Q1360 989 1352 934Q1329 799 1329 637Q1329 510 1341 418Q1354 324 1372 291Q1425 201 1493 201Q1540 201 1618 244Q1774 334
1849 471Q1925 606 1925 780Q1927 801 1931 831Q1933 860 1933 893Q1933 942 1931 965Q1927 987 1915 1020Q1829 1245 1718 1360Q1575 1507 1329 1550Q1262 1559 1167 1559Q946 1559 752 1473T422 1221Q319 1098 258 922Q197 743 197 567Q197 436 236 311Q272 186
346 88Q477 -78 670 -162Q848 -240 1063 -240Q1251 -240 1444 -180Q1634 -121 1786 -14L1823 -61Q1653 -178 1452 -242T1040 -307Q840 -307 664 -246Q471 -178 336 -51T129 246T57 594Q57 788 135 975Q213 1159 354 1300Q510 1454 717 1538Q922 1620 1145 1620Q1249
1620 1352 1602ZM936 819L1147 705V952L848 1069L936 819ZM989 270L1147 414V657L934 774Q903 719 889 666Q872 612 872 557Q872 399 989 270Z" />
<glyph unicode="A" glyph-name="A" horiz-adv-x="1237" d="M1167 57Q1167 33 1139 20Q1110 8 1092 8H721Q731 61 743 80Q750 88 750 147Q750 195 741 240Q731 283 702 322H313Q295 299 215 51Q174 -78 104 -238Q43 -381 -61 -457Q-154 -518 -246 -580Q-236 -594
-231 -604Q-217 -635 -217 -668Q-217 -696 -242 -727T-299 -758Q-334 -758 -360 -733Q-389 -711 -389 -686Q-389 -651 -336 -651Q-326 -651 -303 -653Q-283 -655 -274 -655Q-299 -625 -317 -605T-336 -573Q-336 -563 -334 -538T-332 -489Q-332 -399 -262 -319Q-158
-201 -100 -201Q-66 -201 -55 -211Q-47 -223 -37 -238V-258Q-57 -260 -78 -264T-133 -295Q-125 -307 -121 -313Q-106 -332 -82 -332Q39 -332 78 -66Q96 63 96 379Q96 416 131 520Q176 655 238 758Q324 901 494 973Q557 999 557 1034Q557 1059 535 1090Q510 1118
494 1118Q473 1118 463 1104T446 1079H399Q393 1096 389 1114Q389 1135 410 1151Q428 1165 446 1165H844Q850 1155 858 1145Q864 1133 864 1120Q864 1081 825 1081Q809 1081 791 1096Q772 1114 768 1118Q760 1108 752 1098Q750 1092 750 1063Q750 1030 795 829Q840
629 872 539Q961 262 987 182Q1030 57 1079 57Q1104 57 1110 70Q1114 80 1120 94H1147Q1167 66 1167 57ZM655 567V625Q635 662 608 788Q580 915 559 946Q463 848 430 752Q410 682 389 614V567H655ZM-94 -389H-217L-246 -436L-209 -446Q-176 -446 -156 -438Q-135
-430 -94 -389Z" />
<glyph unicode="B" glyph-name="B" horiz-adv-x="1237" d="M1157 369Q1157 258 1075 158Q965 20 764 20Q662 20 557 34T334 66Q299 66 266 53Q178 20 170 20Q121 20 94 45Q68 70 68 113Q68 156 86 174Q102 190 129 190Q145 190 157 186T176 180L184 160L139 113L158
76Q195 113 211 147Q264 252 264 416V944Q264 999 244 1044Q221 1087 182 1087Q164 1087 160 1085Q143 1069 123 1049Q137 1036 147 1026Q158 1016 162 1016Q176 1022 203 1028V973Q190 963 180 954T152 944Q121 944 94 979Q68 1012 68 1044Q68 1057 90 1085Q111
1114 129 1122Q147 1128 172 1128Q201 1128 248 1120Q365 1100 383 1100Q395 1100 416 1104Q524 1143 561 1153Q621 1171 700 1171Q862 1171 960 1104T1059 911Q1059 836 983 762Q899 696 889 688Q985 629 1081 569Q1157 487 1157 369ZM934 346Q934 489 891 563Q856
623 813 623Q780 623 764 608Q745 594 729 565Q754 602 764 608Q772 614 791 614Q809 614 827 600Q844 584 844 557Q844 516 811 496Q786 481 754 481Q705 481 676 520Q655 549 655 575Q655 635 764 713Q870 791 870 907Q870 993 819 1059Q766 1122 688 1122Q520
1122 469 963Q440 872 440 614Q440 297 481 203Q532 84 709 84Q809 84 866 141Q934 209 934 346ZM745 1042Q745 1026 735 1012Q725 995 702 973Q672 999 670 1004Q655 1022 655 1044Q664 1063 668 1077H737L745 1042ZM735 180Q735 156 727 145T692 133Q676 133
664 150Q649 164 649 174Q655 190 659 197Q674 219 692 219Q709 219 723 207Q735 195 735 180Z" />
<glyph unicode="C" glyph-name="C" horiz-adv-x="1270" d="M707 1008Q707 993 692 981Q676 967 659 967Q643 967 629 981T614 1008Q614 1020 631 1036Q645 1051 659 1051Q676 1051 691 1038T707 1008ZM1200 47Q1200 0 1145 0Q1114 0 1090 28T1040 57Q1020 57 975
43Q872 10 731 10Q471 10 281 152Q74 305 74 539Q74 842 276 1008Q453 1151 715 1151Q791 1151 874 1128Q944 1102 1016 1077Q1036 1077 1057 1120Q1077 1161 1096 1161Q1104 1157 1120 1155Q1137 1151 1163 1151V1096Q1149 1085 1137 1075Q1124 1077 1100 1077Q1090
1001 1085 946Q1079 889 1079 856Q1079 811 1083 795Q1085 776 1098 756H1063Q1044 889 913 987Q795 1077 674 1077Q440 1077 371 903Q338 821 338 598Q338 330 424 207Q510 82 678 82Q856 82 981 231Q1075 387 1081 397Q1090 373 1092 303Q1094 233 1108 74Q1139
82 1159 82Q1169 82 1186 68Q1200 53 1200 47ZM715 172Q715 158 700 143Q686 129 670 129Q657 129 641 145Q625 162 625 172Q625 182 635 190Q643 197 651 203H707Q715 184 715 172Z" />
<glyph unicode="D" glyph-name="D" horiz-adv-x="1237" d="M1188 563Q1188 385 1077 225Q924 4 635 4Q567 4 465 35Q410 51 360 51Q313 51 258 37Q201 20 141 4Q117 4 94 27Q61 61 61 98Q61 117 75 129T106 141Q135 141 145 123Q154 94 158 78Q211 156 229 254Q248
350 248 471Q248 506 248 543Q246 580 246 618Q246 633 246 651Q246 670 248 698Q248 827 233 920Q211 1059 158 1110H133Q125 1073 123 1061Q119 1047 88 1047Q78 1047 61 1065Q43 1081 43 1098Q43 1124 72 1151Q98 1176 137 1176Q195 1151 256 1130Q317 1110
393 1110Q465 1110 526 1139Q588 1167 647 1167Q846 1167 999 1030Q1188 862 1188 563ZM936 614Q936 891 858 995Q793 1083 664 1083Q504 1083 461 958Q434 879 434 590V457Q434 262 465 188Q510 80 647 80Q805 80 879 254Q936 391 936 614ZM709 1014Q709 1001
692 983Q676 965 664 965Q629 965 629 1006Q629 1047 659 1047Q678 1047 693 1036T709 1014ZM709 147Q709 106 672 106Q657 106 643 124T629 158Q629 188 664 188Q678 188 694 176Q709 162 709 147Z" />
<glyph unicode="E" glyph-name="E" horiz-adv-x="1204" d="M1135 -25Q1104 0 1079 41Q1063 68 1042 68Q956 43 842 23Q725 2 637 2Q397 2 223 154Q41 311 41 549Q41 815 232 987T700 1159Q770 1159 867 1137T1055 1075Q1071 1104 1087 1130Q1104 1157 1135 1167Q1124
1110 1108 1071Q1090 1032 1090 1010V797Q1044 928 954 1004Q856 1085 670 1085Q496 1085 408 989Q342 918 283 731V637H762Q772 641 827 651Q940 672 1083 702V432Q956 467 864 487Q770 508 735 508H283V432Q338 229 414 150Q500 59 662 59Q813 59 924 141Q1012
240 1100 340V123Q1100 78 1135 23V-25Z" />
<glyph unicode="F" glyph-name="F" horiz-adv-x="934" d="M901 1251Q901 1229 885 1192Q866 1153 854 1124Q850 1114 848 1044Q846 975 831 936Q784 997 743 1026Q618 1118 446 1118Q389 1118 387 932Q383 743 371 711V635L387 618Q457 674 504 694Q551 715 594
715Q627 715 670 698Q696 688 702 688Q721 688 750 756Q766 797 795 815Q799 807 803 799L698 508Q674 537 643 559Q610 582 563 582Q451 582 410 506Q385 461 385 367Q385 342 385 319L430 -244Q430 -477 297 -492Q233 -498 233 -553Q233 -567 260 -594Q281 -614
297 -627Q283 -655 281 -680Q258 -684 238 -688Q227 -688 205 -680Q223 -668 232 -660T242 -637Q242 -610 205 -604T168 -543Q168 -496 213 -469Q246 -453 281 -438Q252 -428 229 -428Q209 -428 190 -446Q184 -434 178 -424T164 -414Q154 -424 150 -428Q137 -440
129 -446Q129 -430 123 -408H100Q100 -453 92 -459Q82 -467 53 -467Q25 -467 25 -436Q25 -403 41 -391Q57 -381 82 -381Q113 -385 117 -385Q129 -385 135 -373Q141 -360 145 -354H190Q203 -375 215 -389Q225 -406 244 -416L281 -408Q250 -387 219 -367Q197 -344
197 -309Q197 -250 254 -250L297 -256L303 -289Q303 -303 283 -313Q262 -326 250 -332Q258 -338 266 -342Q272 -348 285 -348Q315 -348 338 -328Q369 -299 369 -248Q369 -205 330 -170Q289 -135 258 -135Q238 -135 217 -156Q207 -164 199 -174H176Q193 -100 199
-55Q221 82 221 174V688Q221 915 205 1014Q186 1110 168 1133Q150 1122 137 1094T102 1065Q61 1065 61 1112Q61 1137 84 1151Q106 1163 137 1163H825Q840 1182 852 1213T893 1270Q897 1260 901 1251Z" />
<glyph unicode="G" glyph-name="G" horiz-adv-x="1229" d="M1153 391Q1153 231 1012 117T682 2Q428 2 248 168Q57 344 57 614Q57 819 221 981Q408 1165 705 1165Q827 1165 901 1145Q961 1118 1020 1094Q1038 1102 1053 1104L1042 1165Q1042 1192 1054 1207T1071
1227H1090L1063 846L1026 836Q989 979 905 1047Q819 1112 688 1112Q508 1112 408 983Q305 854 305 659Q305 401 350 293Q377 227 506 90H524Q532 150 553 172Q571 193 600 193Q614 193 625 190Q635 188 641 188Q584 236 543 303Q496 379 496 459Q496 555 565 635Q649
731 782 731Q928 731 1034 645Q1153 549 1153 391ZM952 401Q952 504 905 578Q856 651 778 651Q733 651 688 618Q633 578 633 518Q633 492 639 479Q643 465 653 446Q649 459 649 483Q649 516 666 541Q682 563 729 563Q778 563 811 539Q842 514 842 459Q844 436 844
432Q844 426 842 420Q834 401 825 383Q866 379 885 367Q918 344 918 295Q918 244 852 217Q801 197 733 197Q739 178 739 164Q739 121 670 63Q809 92 866 152Q952 242 952 401ZM733 426Q702 436 674 449Q668 442 662 436Q684 416 700 416Q719 422 733 426ZM817 285V303Q811
303 805 305Q782 313 774 313Q760 313 731 305Q700 297 688 293L782 266Q786 270 793 274Q799 279 817 285Z" />
<glyph unicode="H" glyph-name="H" horiz-adv-x="1278" d="M1210 539Q1210 383 1092 246Q1006 145 864 63Q760 2 733 2Q719 2 696 14Q674 25 674 41Q674 63 731 80Q879 123 944 250Q977 313 995 403Q1014 494 1014 551Q1014 702 936 813Q850 936 715 936Q524 936
446 807Q393 719 393 571Q393 545 395 510Q397 473 397 469Q397 236 406 201Q430 147 461 29Q305 29 223 20Q158 8 94 -2H72Q68 -2 63 -2Q55 12 43 29Q131 57 186 111Q240 162 240 258Q240 786 238 1092Q236 1395 233 1620Q233 1726 205 1787T113 1849Q74 1849
74 1882Q74 1903 92 1921Q109 1937 125 1937Q139 1919 164 1905Q186 1890 219 1890Q303 1890 369 1913Q432 1935 477 1987H532Q537 1970 541 1956Q541 1925 502 1921T461 1913Q440 1884 428 1753Q414 1622 414 1407Q414 1303 410 1106Q406 909 406 877Q477 936
555 977Q631 1018 737 1018Q922 1018 1069 860Q1210 709 1210 539ZM739 850Q739 831 725 819Q709 805 694 805Q657 805 657 854Q657 864 676 874Q692 885 707 885Q739 885 739 850Z" />
<glyph unicode="I" glyph-name="I" horiz-adv-x="639" d="M549 86Q549 39 475 39Q434 39 397 57Q385 51 354 20Q340 6 305 6Q279 6 268 14Q240 37 139 37Q92 37 78 49Q61 61 61 84Q61 109 88 121Q96 125 106 129H158L168 119L123 98V82L143 78Q172 78 193 121Q211
162 211 217V952Q205 989 201 1008Q184 1067 158 1092H131L123 1079Q123 1069 137 1063Q152 1057 168 1051Q141 1040 131 1040Q86 1040 74 1055Q61 1067 61 1087Q61 1114 77 1123T125 1133Q143 1133 180 1128Q215 1122 219 1122Q231 1124 258 1144T305 1165Q330
1165 350 1149Q369 1130 387 1112Q406 1116 424 1122Q442 1126 467 1126Q522 1126 539 1112Q549 1104 549 1085Q549 1051 510 1042Q504 1042 489 1040Q473 1040 446 1057Q459 1069 489 1085L473 1098Q424 1077 412 1034Q397 991 397 881V289Q397 217 408 170Q426
90 473 72L489 82Q465 96 446 102Q461 129 489 129Q530 129 543 109Q549 98 549 86Z" />
<glyph unicode="J" glyph-name="J" horiz-adv-x="614" d="M545 1085Q545 1038 516 1020Q508 1016 487 1012Q473 1012 461 1024Q449 1034 444 1038Q455 1055 467 1067Q477 1077 487 1087L471 1106Q422 1071 410 1001Q395 932 395 750V-55Q395 -70 399 -109Q414
-246 414 -276Q414 -301 412 -309Q381 -469 276 -530Q225 -561 209 -623L254 -614Q307 -614 307 -659Q307 -698 291 -709T227 -721Q172 -721 152 -706T131 -662Q131 -647 139 -612Q143 -594 143 -584Q143 -575 141 -571T104 -553Q70 -539 70 -516Q70 -475 111 -450T190
-401Q174 -389 162 -377Q147 -367 147 -342Q147 -313 178 -289Q207 -266 246 -266Q276 -266 289 -279Q299 -293 299 -317Q299 -328 297 -344T295 -369Q319 -356 328 -342Q344 -315 344 -279Q344 -242 319 -223Q293 -207 256 -207Q231 -207 215 -209Q197 -213 166
-223Q178 -152 184 -72T190 72Q190 195 195 279Q209 571 209 610Q209 903 199 977Q186 1051 158 1096L115 1087Q133 1059 158 1047V1012Q143 1008 131 1004Q96 1004 76 1036Q53 1069 53 1094Q53 1137 70 1153Q86 1167 117 1167Q141 1167 178 1157Q213 1147 217
1147Q229 1151 256 1184T303 1217Q328 1217 348 1190Q367 1159 385 1130Q403 1139 422 1147Q438 1155 465 1155Q510 1155 527 1141T545 1085ZM285 -453H242Q215 -477 203 -477Q182 -477 150 -496Q162 -500 176 -504Q193 -504 229 -485Q264 -469 285 -453Z" />
<glyph unicode="K" glyph-name="K" horiz-adv-x="1303" d="M1231 514Q1231 279 1049 100Q981 35 795 -82H768Q864 20 961 125Q1040 264 1040 459Q1040 588 975 692Q893 823 743 823Q602 823 553 752Q518 700 518 571Q518 541 518 510Q518 479 520 446Q520 340
526 238Q530 135 538 96T672 53Q795 49 809 16Q440 16 360 20Q281 23 233 27L145 16Q145 -66 109 -66Q92 -66 70 -48T47 -12Q47 37 70 51Q90 66 133 66Q164 63 180 63Q264 63 293 104Q319 145 319 225V1456Q319 1657 168 1671Q96 1677 96 1753Q96 1776 112 1801T162
1827Q211 1827 232 1796T254 1720Q313 1710 369 1704Q422 1696 465 1696Q737 1696 784 1784Q807 1827 883 1827Q922 1827 956 1796Q991 1763 991 1741Q991 1706 973 1686Q952 1663 922 1663Q895 1663 877 1681Q868 1690 844 1731Q829 1718 819 1706Q807 1694 807
1688Q807 1626 971 1507Q1135 1389 1135 1221Q1135 1120 1055 1036Q881 922 879 920Q975 891 1071 864Q1231 770 1231 514ZM909 1221Q909 1290 864 1376Q756 1587 743 1677H719Q649 1663 612 1642Q545 1604 545 1440Q545 1317 539 1214Q520 905 520 850Q635 905
750 963Q909 1067 909 1221Z" />
<glyph unicode="L" glyph-name="L" horiz-adv-x="1450" d="M1399 51Q1399 35 1376 20T1325 4Q1313 4 1294 14Q1245 41 1233 43Q1225 45 1214 45Q1186 45 1133 33Q1059 14 1028 14Q936 14 834 51Q608 133 561 133Q432 133 332 61Q229 -12 205 -12Q190 -12 182 -10L188
-27Q162 -47 156 -47Q143 -39 117 -39Q98 -39 86 -41L109 -70L80 -78Q61 -63 53 -57Q27 -35 27 -29Q35 -16 39 -8Q72 43 102 66Q104 55 106 47Q109 37 109 14Q123 6 131 -4Q133 6 137 16Q139 27 139 41Q139 61 131 88H174Q176 70 184 57Q190 43 197 35Q197 109
330 207Q461 303 461 537Q461 676 379 903T297 1333Q297 1466 336 1565Q379 1657 424 1751Q422 1759 422 1767Q420 1776 414 1786H369Q367 1769 367 1761Q367 1753 369 1733Q369 1722 369 1714Q370 1710 370 1706Q370 1702 369 1698H326Q297 1726 297 1747Q297
1778 324 1804Q350 1831 383 1831Q453 1831 453 1776Q453 1755 432 1720L446 1712Q453 1712 584 1804Q645 1847 692 1847Q754 1847 766 1817Q774 1763 786 1726Q819 1759 819 1778Q819 1788 809 1823Q817 1815 838 1790Q852 1774 852 1767Q850 1755 850 1739Q850
1692 831 1673Q813 1655 770 1655Q719 1655 698 1702Q688 1726 680 1786H635Q592 1767 573 1761Q541 1747 512 1720Q580 1704 614 1696Q647 1686 647 1642Q647 1610 629 1587Q608 1565 569 1565Q565 1565 553 1575Q539 1583 518 1583L485 1579V1608Q512 1632 528
1632Q549 1630 569 1630Q573 1634 580 1640Q584 1647 584 1655L578 1675Q563 1683 557 1683Q492 1683 463 1649Q432 1612 432 1548Q432 1499 487 1339Q565 1118 590 1032Q647 838 647 723Q647 514 547 369Q422 229 375 162L389 154Q457 207 531 248T690 289Q799
289 879 188Q958 88 1010 88Q1028 88 1036 90Q1044 90 1053 94Q1061 100 1061 111Q1061 119 985 141Q909 164 909 238L915 258Q926 262 938 268Q948 254 961 242Q985 215 1051 215Q1090 215 1106 197T1122 150Q1122 129 1120 111Q1120 100 1120 94Q1119 90 1119
87Q1119 83 1120 80Q1149 96 1182 115Q1212 133 1231 133Q1251 133 1284 96Q1307 70 1319 57Q1329 76 1339 90Q1350 104 1362 104Q1378 104 1388 90T1399 51ZM240 14Q225 27 213 41Q207 37 203 35Q217 14 223 14Q229 14 240 14Z" />
<glyph unicode="M" glyph-name="M" horiz-adv-x="1999" d="M1933 -139Q1913 -63 1862 -12Q1804 45 1704 45Q1659 45 1604 35T1479 -2H1430Q1509 147 1565 317Q1618 487 1618 639Q1618 803 1571 918Q1507 1071 1374 1071Q1247 1071 1163 942Q1102 848 1102 786V254Q1102
90 1206 57Q1253 45 1300 35V6L1280 -10H676L666 8Q666 41 721 55Q844 86 844 281V776Q844 858 758 973Q664 1098 582 1098Q475 1098 391 983T307 664Q307 512 369 340Q442 182 516 27H268Q141 27 119 -31Q104 -98 90 -168H59Q53 -154 49 -139Q49 -137 59 -106Q70
-76 70 -66V291H90Q125 236 158 213Q207 182 258 154L299 164Q193 283 117 416Q39 549 39 639Q39 852 199 1008Q356 1161 561 1161Q651 1161 852 1094Q950 1061 1036 1061Q1098 1061 1217 1112Q1335 1161 1442 1161Q1620 1161 1765 977Q1905 801 1905 612Q1905
469 1769 299Q1624 147 1608 127Q1618 121 1628 117Q1712 117 1823 223Q1878 285 1933 346V-139Z" />
<glyph unicode="N" glyph-name="N" horiz-adv-x="1270" d="M1200 -190L1165 -199Q1151 -154 1145 -125Q1139 -98 1139 -82Q1139 -57 1139 -31Q1139 -6 1141 18L614 -8V18Q717 123 807 274Q946 508 946 696Q946 838 868 950Q791 1063 686 1063Q559 1063 494 967Q436
883 436 754V264Q436 96 469 66Q504 41 539 18H74L47 45Q55 57 70 66Q84 72 113 72H150Q199 72 221 96Q252 131 252 238V881Q252 993 168 1032Q106 1051 47 1069Q90 1094 121 1094Q123 1094 203 1075Q248 1065 293 1065Q332 1065 385 1071Q500 1114 588 1143Q674
1171 717 1171Q854 1171 1008 1067Q1184 946 1184 791V608Q1184 508 1085 371Q985 231 803 119V100Q811 94 819 90Q887 90 989 158Q1094 238 1200 317V-190Z" />
<glyph unicode="O" glyph-name="O" horiz-adv-x="1212" d="M1145 594Q1145 334 983 172Q819 8 571 8Q350 8 197 209Q55 393 55 604Q55 776 178 944Q338 1161 604 1161Q829 1161 987 997Q1145 834 1145 594ZM905 676Q905 909 821 1001Q752 1077 618 1077Q424 1077
352 979Q279 879 279 618Q279 311 362 195Q436 92 584 92Q772 92 844 240Q905 367 905 676ZM647 999Q647 985 623 967Q598 946 584 946Q565 954 555 956V1012Q559 1026 563 1034Q567 1040 596 1040Q608 1040 621 1034Q647 1020 647 999ZM631 197Q631 168 621 160Q608
150 584 150Q537 150 537 193Q537 207 551 221Q563 233 584 233Q631 233 631 197Z" />
<glyph unicode="P" glyph-name="P" horiz-adv-x="1401" d="M1327 606Q1327 379 1157 217Q985 53 770 53Q692 53 627 76Q524 111 502 115V-641Q502 -713 465 -762T365 -811Q283 -811 283 -729Q283 -715 309 -694Q334 -676 346 -676Q377 -676 387 -692Q395 -721
401 -739Q428 -709 430 -707Q446 -684 446 -668Q446 -623 410 -608Q371 -594 305 -594Q285 -594 266 -594Q248 -594 231 -596Q244 -514 268 -453Q276 -432 276 -416Q276 -168 281 2Q295 594 295 672Q295 795 270 891Q246 987 207 987Q186 987 174 963Q145 905 90
905Q72 905 53 936Q33 965 33 989Q33 1026 70 1049Q104 1069 145 1069Q152 1069 254 1034Q307 1016 356 1016Q418 1016 492 1053Q664 1139 780 1139Q1012 1139 1178 952Q1327 784 1327 606ZM1040 606Q1040 801 965 936Q889 1069 774 1069Q596 1069 539 907Q500
799 500 516Q500 487 500 461Q498 432 498 406Q498 252 535 199Q588 123 756 123Q897 123 977 299Q1040 440 1040 606ZM807 950Q788 946 770 942L725 961V987Q735 1004 741 1010Q745 1016 764 1016Q782 1016 790 1006T807 987V950ZM807 223Q807 197 793 188Q776
180 756 180Q743 180 731 193Q717 203 717 213Q727 229 733 236Q752 258 766 258Q780 252 786 248Q807 236 807 223Z" />
<glyph unicode="Q" glyph-name="Q" horiz-adv-x="1343" d="M2431 -500Q2431 -530 2404 -543Q2378 -557 2351 -557Q2320 -557 2310 -551Q2296 -535 2281 -520H2318L2339 -492Q2322 -479 2308 -467Q2288 -455 2247 -455Q2163 -471 2081 -483Q1997 -498 1896 -498Q1675
-498 1513 -418Q1477 -399 1237 -236Q1055 -111 866 -49Q852 -45 600 -6Q281 43 143 287Q113 340 82 393Q55 467 55 561Q55 813 242 993Q428 1174 672 1174Q909 1174 1087 999Q1266 825 1266 590Q1266 397 1180 268Q1087 131 885 35Q1010 20 1096 8Q1262 -16 1382
-106Q1419 -133 1554 -260Q1751 -442 1858 -442Q1888 -442 1907 -428Q1923 -416 1944 -387Q1935 -371 1917 -350H1896Q1890 -358 1884 -371Q1878 -383 1878 -406H1841Q1833 -393 1823 -377Q1810 -362 1810 -360Q1810 -326 1839 -299T1905 -272Q1946 -272 1962 -285Q1980
-307 1999 -324Q2015 -311 2050 -285Q2073 -266 2122 -266Q2169 -266 2183 -291Q2198 -315 2198 -360Q2198 -389 2198 -418Q2222 -418 2244 -412T2275 -406Q2322 -406 2378 -430Q2431 -457 2431 -500ZM2122 -354Q2122 -348 2111 -346Q2101 -344 2093 -342Q2068
-381 2062 -387Q2040 -412 2019 -436Q2075 -412 2099 -389Q2122 -369 2122 -354ZM1032 485V748Q1032 944 885 1038Q780 1106 657 1106Q489 1106 393 936Q309 788 309 584Q309 352 379 229Q475 61 709 61Q815 61 920 184Q1032 317 1032 485ZM741 1026Q741 1010 721
991Q709 981 696 973Q694 975 682 985Q668 993 668 1016Q668 1028 676 1044Q682 1059 686 1067Q700 1061 720 1053T741 1026ZM713 168Q713 156 707 143T696 119Q686 117 682 115Q678 111 678 109Q666 119 653 133T639 168Q645 180 649 184Q664 203 676 203Q713
203 713 168Z" />
<glyph unicode="R" glyph-name="R" horiz-adv-x="1229" d="M1165 8L1157 -45H1135Q1120 -14 1102 0Q1077 20 1038 20Q1026 20 995 16Q965 12 948 12Q901 12 862 43Q809 84 762 178Q727 297 700 356Q653 459 489 598H399V262Q436 119 455 86Q471 51 496 51Q539
51 569 20Q516 20 373 10Q315 6 262 6Q211 6 150 12Q131 12 109 31Q84 49 84 76Q84 96 98 111Q111 123 127 123Q158 123 158 90V66Q170 57 178 57Q209 57 231 119Q254 178 254 281V842Q254 911 238 987T190 1102H158Q166 1063 166 1055Q166 1026 152 1012T119 997Q96
997 80 1020Q61 1040 61 1059Q61 1114 94 1136T186 1159Q240 1159 281 1141Q322 1120 367 1120Q381 1120 496 1151Q557 1167 625 1167Q752 1167 840 1096Q940 1014 940 864Q940 713 864 647Q797 604 731 561Q889 379 922 154Q932 84 969 84Q981 84 993 84Q995 96
1014 113Q1006 131 981 150Q985 162 989 176Q1001 197 1032 197Q1085 197 1085 147Q1085 135 1077 94Q1104 86 1130 80Q1165 63 1165 8ZM762 874Q762 975 709 1038Q655 1102 582 1102Q504 1102 457 1061Q408 1018 408 963V672Q479 672 541 649Q602 627 623 627Q686
627 727 717Q762 793 762 874ZM618 1044Q618 1034 612 1030T602 1018H569L553 1055L569 1073H610Q614 1059 618 1044ZM635 690Q621 680 606 672Q590 678 578 682V729H635V690Z" />
<glyph unicode="S" glyph-name="S" horiz-adv-x="1098" d="M543 983Q528 973 514 965Q496 973 485 973Q479 987 475 1001Q475 1010 485 1020Q494 1028 494 1030H532L543 983ZM1020 352Q1020 197 895 100Q780 12 614 12Q508 12 401 33Q295 53 184 76Q147 76 139
43Q129 8 123 -25Q109 -20 96 -18Q84 -10 72 35L123 457Q164 326 217 250Q319 104 571 104Q678 104 754 145Q844 195 844 281Q844 403 639 451Q285 530 258 543Q53 637 53 879Q53 965 154 1061Q262 1165 377 1165H582Q614 1165 705 1137Q795 1104 885 1073Q922
1073 934 1122Q954 1200 993 1247Q995 1227 995 1217Q995 1186 975 1030T954 737Q885 887 762 985Q627 1094 440 1094Q344 1094 272 1036Q201 979 201 907Q201 766 412 715Q608 674 807 633Q1020 557 1020 352ZM569 176Q569 168 569 160Q565 158 553 139H504Q498
158 492 176L543 211Q551 211 561 207Q569 201 569 176Z" />
<glyph unicode="T" glyph-name="T" horiz-adv-x="1221" d="M1155 889Q1067 961 1008 977T834 993Q608 993 479 848Q358 711 358 489Q358 303 444 201T676 98Q750 98 803 122T885 201Q840 201 825 213Q809 223 809 246Q809 254 819 289Q823 303 823 311Q823 336
791 346Q756 354 700 354Q680 354 659 354Q639 352 621 352Q641 328 702 295Q741 274 741 221Q741 195 717 170T659 145Q618 145 590 162Q551 184 551 225Q551 248 559 258Q565 266 575 276Q590 260 606 244Q621 225 637 211Q653 223 653 236Q586 291 532 354Q479
416 479 498Q485 549 496 578Q559 756 764 756Q920 756 1020 655Q1118 553 1118 399Q1118 221 958 109Q823 12 678 12Q451 12 272 149T92 475Q92 676 291 838Q506 973 532 991Q510 999 492 1001Q473 1004 451 1004Q406 1001 379 1001Q139 1001 121 963Q92 905 59
879L49 1274L68 1292Q121 1196 309 1163Q428 1143 678 1143L1077 1151Q1104 1182 1112 1210Q1120 1239 1147 1266L1155 889ZM926 389Q926 498 887 580Q838 682 748 682Q674 682 625 631Q584 588 584 551Q584 532 625 506Q631 502 645 494Q659 498 674 502Q668 502
662 502Q639 502 631 508Q610 522 610 559Q610 580 635 598Q657 616 682 616Q723 616 745 596Q768 575 768 522Q768 481 735 457Q719 444 674 428Q709 428 739 428Q770 428 799 430Q870 430 895 410T920 315Q924 338 926 352Q926 365 926 389ZM909 248V305Q887
270 883 264Q877 258 866 248H909ZM655 428Q627 434 600 440Q596 438 594 436Q625 426 633 426Q641 428 655 428Z" />
<glyph unicode="U" glyph-name="U" horiz-adv-x="1434" d="M1364 113Q1364 84 1339 59T1268 33Q1176 33 1116 106Q1079 162 1044 219Q1030 164 1030 143Q1030 123 1047 113Q1061 100 1061 78Q1061 49 1044 37Q1026 23 1001 23Q954 23 954 68Q954 78 973 106Q991
135 991 166Q991 178 981 209Q913 133 846 59Q760 6 621 6Q342 6 195 164Q59 307 59 545Q59 670 143 815Q197 895 250 977Q150 977 150 1020Q150 1040 168 1075Q141 1083 127 1083Q111 1075 96 1075Q59 1075 59 1120Q59 1157 80 1167Q98 1176 152 1182Q152 1272
231 1272Q262 1272 289 1255Q313 1237 313 1208Q313 1190 305 1171Q420 1159 450 1157T571 1155Q418 1036 356 903Q287 754 287 504Q287 336 401 211Q514 84 655 84Q819 84 879 211Q920 297 920 489Q920 530 920 571Q918 610 918 651Q918 821 907 956Q897 1092
881 1110T815 1130Q766 1133 754 1137L762 1163H1309Q1319 1149 1323 1141T1327 1120Q1327 1083 1286 1083Q1257 1083 1249 1105T1219 1128Q1178 1128 1157 1014Q1137 897 1137 635Q1137 600 1137 569Q1135 539 1135 512Q1135 309 1169 211Q1204 113 1264 84Q1270
109 1280 137Q1290 166 1319 166Q1325 166 1346 147Q1364 127 1364 113ZM707 158Q688 154 670 150Q635 150 635 184Q635 195 643 209Q649 221 653 227H698Q700 219 705 213Q707 205 707 158ZM389 1094L328 1102Q297 1102 272 1094Q246 1083 221 1075Q238 1067 254
1067Q270 1067 290 1077T313 1087Q324 1087 324 1053Q324 1042 317 1032Q311 1022 305 1012Q319 1038 326 1044Q332 1051 389 1094Z" />
<glyph unicode="V" glyph-name="V" horiz-adv-x="1188" d="M1143 1124Q1143 1108 1133 1096T1102 1083Q1081 1083 1071 1098Q1061 1110 1055 1122Q997 1083 907 864Q870 776 743 418Q641 131 586 20Q561 45 475 301Q387 557 381 575Q268 928 229 1014Q190 1098
147 1098Q125 1098 106 1055Q96 1032 76 1032Q59 1032 51 1047Q41 1061 41 1077Q41 1085 49 1098Q68 1126 80 1133L494 1159Q504 1159 518 1155Q530 1149 532 1149Q504 1122 492 1108Q465 1077 465 1022Q465 977 540 682T639 340Q668 375 773 695T879 1059Q879
1083 852 1100Q813 1124 797 1149H971Q983 1149 1020 1157T1079 1165Q1102 1165 1122 1155Q1143 1145 1143 1124Z" />
<glyph unicode="W" glyph-name="W" horiz-adv-x="2048" d="M1991 115Q1991 82 1962 59Q1933 37 1886 37Q1786 37 1733 98Q1679 182 1645 221Q1626 174 1626 145Q1626 125 1644 113T1663 80Q1663 61 1647 43T1597 25Q1575 25 1559 39T1542 68Q1542 78 1563 109Q1581
137 1581 170L1575 213Q1505 137 1436 63Q1350 8 1210 8Q1100 8 1026 20Q958 37 891 53Q844 35 784 23Q723 8 651 8Q350 8 188 166Q41 311 41 547Q41 676 127 809Q188 893 250 977Q141 977 141 1026Q141 1047 158 1075Q127 1085 113 1085Q106 1085 100 1081Q92
1075 80 1075Q41 1075 41 1120Q41 1159 84 1174Q133 1182 139 1182Q139 1233 160 1253Q178 1272 229 1272Q319 1272 319 1208Q319 1192 309 1171L1931 1163Q1942 1149 1946 1141T1950 1120Q1950 1083 1907 1083Q1878 1083 1864 1105T1831 1128Q1743 1128 1743 635Q1743
600 1743 569Q1741 537 1741 506Q1741 309 1782 205Q1817 115 1882 88Q1892 129 1898 141Q1913 170 1942 170Q1952 170 1972 150Q1991 127 1991 115ZM1491 653Q1491 913 1483 977Q1473 1038 1464 1094H1184Q979 1094 887 850Q825 690 825 506Q825 373 926 250Q1042
106 1210 106Q1393 106 1452 223Q1493 303 1493 514Q1493 547 1493 582Q1491 616 1491 653ZM399 1094Q381 1094 367 1094Q350 1094 336 1096Q295 1096 217 1075L240 1057Q254 1063 272 1071Q289 1077 309 1083Q317 1079 319 1077Q330 1067 330 1053Q330 1042 328
1038Q317 1026 309 1014Q324 1036 352 1059Q356 1063 399 1094ZM918 1094H518Q418 997 360 856Q297 698 297 506Q297 311 459 188Q471 180 637 96H768Q707 168 647 242Q559 375 559 547Q559 729 698 887Q866 1038 918 1094Z" />
<glyph unicode="X" glyph-name="X" horiz-adv-x="1237" d="M1178 950Q1178 866 1137 825Q1108 797 1010 756H936Q942 772 1001 823Q1049 864 1049 926Q1049 958 1012 991Q989 1012 967 1012Q934 1012 825 870Q717 729 717 674Q717 608 835 344T999 35H1090L1081
84Q1081 94 1092 111Q1100 125 1118 125Q1137 125 1155 106Q1171 86 1171 72Q1171 27 1141 10T1051 -8Q1016 -8 997 -6T907 6Q838 14 801 14Q705 14 659 -27Q637 -47 616 -70Q569 -70 569 -29Q569 27 643 39T717 102Q707 168 696 207Q666 324 612 406Q580 371 516
215Q414 -35 250 -35Q182 -35 129 6Q61 57 61 145Q61 233 123 334Q182 434 182 563Q254 526 254 422Q254 356 238 301Q229 276 221 252Q221 201 254 164Q285 125 324 125Q373 125 471 266Q569 408 569 498Q569 545 451 805Q330 1065 303 1092H248Q248 1055 238
1034Q225 1012 199 1012Q180 1012 162 1047Q160 1053 156 1065Q156 1120 211 1142T350 1165Q406 1165 444 1161Q483 1155 514 1145H676Q678 1178 682 1212Q690 1233 717 1233Q737 1233 752 1210Q764 1188 764 1174Q764 1110 668 1094Q569 1077 569 1071Q590 995
602 952Q643 817 684 756Q743 905 803 1055Q885 1178 1004 1178Q1061 1149 1090 1126Q1178 1053 1178 950Z" />
<glyph unicode="Y" glyph-name="Y" horiz-adv-x="1507" d="M1464 1174Q1430 1118 1317 1112Q1202 1104 1176 1087V860Q1176 698 1079 522Q963 309 729 117Q649 51 451 -59T180 -231Q61 -336 61 -457Q61 -512 90 -555Q127 -610 193 -610Q221 -610 237 -602T283
-557Q256 -561 238 -561Q215 -561 207 -545Q197 -530 197 -516Q197 -492 211 -474T258 -455Q297 -455 319 -485Q336 -508 336 -539Q336 -588 295 -616Q252 -647 195 -647Q115 -647 57 -592Q0 -537 0 -457Q0 -313 160 -162Q309 -20 459 119Q618 311 618 559Q618
670 582 791Q530 958 432 1040Q354 1106 182 1118Q8 1128 8 1219Q8 1270 55 1270Q88 1270 100 1253Q111 1237 111 1204V1165L1464 1174ZM930 815Q930 950 926 985Q911 1110 821 1110Q795 1110 764 1108Q733 1104 729 1104Q764 1012 780 850Q791 743 791 627Q791
461 758 377Q717 270 573 117Q776 301 840 412Q930 567 930 815Z" />
<glyph unicode="Z" glyph-name="Z" horiz-adv-x="1573" d="M1526 1167L901 682Q915 659 921 643T928 602Q928 510 866 471Q821 442 743 442Q705 442 688 444Q672 446 664 451Q600 416 563 391Q451 313 389 221Q397 217 408 213Q483 240 584 262Q682 283 768 283Q862
283 999 236Q1106 199 1260 125H1346Q1354 143 1354 156Q1339 170 1333 178Q1311 209 1311 231Q1311 264 1335 289Q1358 311 1386 311Q1434 311 1454 279Q1475 244 1475 197Q1475 80 1354 37Q1274 8 1122 8Q1014 8 799 55Q686 80 608 80Q426 80 307 59Q184 33 63
8H41L604 479Q586 514 582 528Q575 543 575 571Q575 680 645 727Q700 764 786 764Q836 764 868 758Q874 758 885 752Q940 793 973 817Q1077 897 1141 956Q1016 969 885 973Q623 983 362 983Q287 983 274 979T219 946Q233 918 252 901Q260 893 260 872Q260 840 240
827Q217 815 184 815Q139 815 115 830T90 885Q90 993 319 1087Q496 1159 739 1159Q864 1159 969 1143Q1202 1106 1233 1106Q1350 1106 1405 1141Q1479 1188 1526 1194V1167Z" />
<glyph unicode="[" glyph-name="bracketleft" horiz-adv-x="0" />
<glyph unicode="\" glyph-name="backslash" horiz-adv-x="0" />
<glyph unicode="]" glyph-name="bracketright" horiz-adv-x="0" />
<glyph unicode="^" glyph-name="asciicircum" horiz-adv-x="0" />
<glyph unicode="_" glyph-name="underscore" horiz-adv-x="0" />
<glyph unicode="`" glyph-name="grave" horiz-adv-x="2048" d="M1964 98H68V1565H1964V98ZM1937 129V1536H94V129H1937ZM1829 973Q1829 772 1702 635Q1573 496 1393 496H1063V758H942V496H831V758H436Q436 711 438 637Q440 563 440 537Q440 416 414 365Q381 301
272 246H217V303Q274 342 289 360Q313 391 313 451V1417H446V948L887 1417H942V846H1063V1417H1460Q1671 1339 1739 1270Q1829 1176 1829 973ZM1677 973Q1677 1196 1567 1257Q1530 1278 1364 1329H1200V584H1311Q1397 594 1458 610Q1677 674 1677 973ZM819 860V1169Q799
1145 690 1030Q621 956 530 860H819Z" />
<glyph unicode="a" glyph-name="a" horiz-adv-x="1237" d="M1167 57Q1167 33 1139 20Q1110 8 1092 8H721Q731 61 743 80Q750 88 750 147Q750 195 741 240Q731 283 702 322H313Q295 299 215 51Q174 -78 104 -238Q43 -381 -61 -457Q-154 -518 -246 -580Q-236 -594
-231 -604Q-217 -635 -217 -668Q-217 -696 -242 -727T-299 -758Q-334 -758 -360 -733Q-389 -711 -389 -686Q-389 -651 -336 -651Q-326 -651 -303 -653Q-283 -655 -274 -655Q-299 -625 -317 -605T-336 -573Q-336 -563 -334 -538T-332 -489Q-332 -399 -262 -319Q-158
-201 -100 -201Q-66 -201 -55 -211Q-47 -223 -37 -238V-258Q-57 -260 -78 -264T-133 -295Q-125 -307 -121 -313Q-106 -332 -82 -332Q39 -332 78 -66Q96 63 96 379Q96 416 131 520Q176 655 238 758Q324 901 494 973Q557 999 557 1034Q557 1059 535 1090Q510 1118
494 1118Q473 1118 463 1104T446 1079H399Q393 1096 389 1114Q389 1135 410 1151Q428 1165 446 1165H844Q850 1155 858 1145Q864 1133 864 1120Q864 1081 825 1081Q809 1081 791 1096Q772 1114 768 1118Q760 1108 752 1098Q750 1092 750 1063Q750 1030 795 829Q840
629 872 539Q961 262 987 182Q1030 57 1079 57Q1104 57 1110 70Q1114 80 1120 94H1147Q1167 66 1167 57ZM655 567V625Q635 662 608 788Q580 915 559 946Q463 848 430 752Q410 682 389 614V567H655ZM-94 -389H-217L-246 -436L-209 -446Q-176 -446 -156 -438Q-135
-430 -94 -389Z" />
<glyph unicode="b" glyph-name="b" horiz-adv-x="1237" d="M1157 369Q1157 258 1075 158Q965 20 764 20Q662 20 557 34T334 66Q299 66 266 53Q178 20 170 20Q121 20 94 45Q68 70 68 113Q68 156 86 174Q102 190 129 190Q145 190 157 186T176 180L184 160L139 113L158
76Q195 113 211 147Q264 252 264 416V944Q264 999 244 1044Q221 1087 182 1087Q164 1087 160 1085Q143 1069 123 1049Q137 1036 147 1026Q158 1016 162 1016Q176 1022 203 1028V973Q190 963 180 954T152 944Q121 944 94 979Q68 1012 68 1044Q68 1057 90 1085Q111
1114 129 1122Q147 1128 172 1128Q201 1128 248 1120Q365 1100 383 1100Q395 1100 416 1104Q524 1143 561 1153Q621 1171 700 1171Q862 1171 960 1104T1059 911Q1059 836 983 762Q899 696 889 688Q985 629 1081 569Q1157 487 1157 369ZM934 346Q934 489 891 563Q856
623 813 623Q780 623 764 608Q745 594 729 565Q754 602 764 608Q772 614 791 614Q809 614 827 600Q844 584 844 557Q844 516 811 496Q786 481 754 481Q705 481 676 520Q655 549 655 575Q655 635 764 713Q870 791 870 907Q870 993 819 1059Q766 1122 688 1122Q520
1122 469 963Q440 872 440 614Q440 297 481 203Q532 84 709 84Q809 84 866 141Q934 209 934 346ZM745 1042Q745 1026 735 1012Q725 995 702 973Q672 999 670 1004Q655 1022 655 1044Q664 1063 668 1077H737L745 1042ZM735 180Q735 156 727 145T692 133Q676 133
664 150Q649 164 649 174Q655 190 659 197Q674 219 692 219Q709 219 723 207Q735 195 735 180Z" />
<glyph unicode="c" glyph-name="c" horiz-adv-x="1270" d="M707 1008Q707 993 692 981Q676 967 659 967Q643 967 629 981T614 1008Q614 1020 631 1036Q645 1051 659 1051Q676 1051 691 1038T707 1008ZM1200 47Q1200 0 1145 0Q1114 0 1090 28T1040 57Q1020 57 975
43Q872 10 731 10Q471 10 281 152Q74 305 74 539Q74 842 276 1008Q453 1151 715 1151Q791 1151 874 1128Q944 1102 1016 1077Q1036 1077 1057 1120Q1077 1161 1096 1161Q1104 1157 1120 1155Q1137 1151 1163 1151V1096Q1149 1085 1137 1075Q1124 1077 1100 1077Q1090
1001 1085 946Q1079 889 1079 856Q1079 811 1083 795Q1085 776 1098 756H1063Q1044 889 913 987Q795 1077 674 1077Q440 1077 371 903Q338 821 338 598Q338 330 424 207Q510 82 678 82Q856 82 981 231Q1075 387 1081 397Q1090 373 1092 303Q1094 233 1108 74Q1139
82 1159 82Q1169 82 1186 68Q1200 53 1200 47ZM715 172Q715 158 700 143Q686 129 670 129Q657 129 641 145Q625 162 625 172Q625 182 635 190Q643 197 651 203H707Q715 184 715 172Z" />
<glyph unicode="d" glyph-name="d" horiz-adv-x="1221" d="M1155 571Q1155 328 963 160Q795 14 612 14Q381 14 207 178T33 590Q33 745 106 864Q154 932 201 1001H158Q131 987 59 963T-37 938Q-182 938 -254 999Q-303 1040 -354 1157Q-367 1182 -371 1208Q-375
1235 -375 1255V1294Q-375 1315 -381 1325Q-403 1370 -481 1383T-559 1464Q-559 1505 -535 1540Q-512 1573 -483 1573Q-449 1573 -438 1552Q-434 1544 -434 1520Q-434 1489 -446 1481Q-451 1479 -496 1464Q-481 1438 -399 1427Q-317 1417 -293 1352Q-264 1378 -254
1384Q-221 1407 -201 1407Q-147 1407 -129 1382T-111 1311Q-111 1288 -113 1266T-117 1223Q-61 1223 -41 1210Q-20 1196 -20 1149Q-20 1124 -39 1106Q-59 1085 -72 1085Q-94 1085 -100 1102Q-106 1116 -106 1149Q-117 1153 -127 1157Q-147 1157 -166 1143Q-186
1126 -186 1104Q-186 1067 -135 1040T-43 1012Q29 1012 261 1084T588 1157Q825 1157 991 997Q1155 836 1155 571ZM926 596Q926 887 829 1006Q750 1104 598 1104Q436 1104 352 973Q262 834 262 549Q262 344 332 225Q420 76 608 76Q764 76 846 203Q926 330 926 596ZM-170
1307Q-170 1311 -180 1319Q-201 1333 -211 1333Q-231 1333 -240 1303T-250 1251Q-250 1237 -246 1210Q-242 1184 -242 1167Q-233 1206 -211 1241Q-190 1274 -170 1307ZM643 1047Q639 1030 635 1016T625 991L582 1001V1047L600 1067L643 1047ZM643 178Q643 158 641
154Q633 147 625 141H590Q584 164 584 176Q582 186 582 207Q594 211 608 217Q618 217 630 207T643 178Z" />
<glyph unicode="e" glyph-name="e" horiz-adv-x="1253" d="M1188 -53Q1188 -66 1184 -72Q1178 -78 1176 -82Q1139 -61 1108 -16Q1075 29 750 29Q535 29 436 23Q338 16 225 10Q170 10 139 16Q78 29 78 61Q78 82 94 94Q109 104 123 104Q164 104 170 86Q174 66 205
66Q256 66 276 193Q297 319 297 616Q297 938 274 1034T188 1130Q150 1130 145 1104Q141 1075 100 1075Q47 1075 47 1128Q47 1174 145 1174Q172 1174 397 1157Q539 1147 606 1147L1067 1165Q1079 1196 1087 1217Q1104 1257 1155 1268Q1151 1233 1120 1092Q1110 1044
1090 952Q936 1038 862 1057Q762 1073 662 1092H485V639H750Q754 641 899 649T1067 760H1100V416H1067Q1051 492 924 500Q797 506 750 520H498V94H694Q823 115 899 125Q1038 145 1067 176Q1081 193 1087 205Q1092 215 1092 227Q1087 244 1087 250Q1087 266 1122
279Q1122 170 1143 80Q1165 12 1188 -53Z" />
<glyph unicode="f" glyph-name="f" horiz-adv-x="934" d="M901 1251Q901 1229 885 1192Q866 1153 854 1124Q850 1114 848 1044Q846 975 831 936Q784 997 743 1026Q618 1118 446 1118Q389 1118 387 932Q383 743 371 711V635L387 618Q457 674 504 694Q551 715 594
715Q627 715 670 698Q696 688 702 688Q721 688 750 756Q766 797 795 815Q799 807 803 799L698 508Q674 537 643 559Q610 582 563 582Q451 582 410 506Q385 461 385 367Q385 342 385 319L430 -244Q430 -477 297 -492Q233 -498 233 -553Q233 -567 260 -594Q281 -614
297 -627Q283 -655 281 -680Q258 -684 238 -688Q227 -688 205 -680Q223 -668 232 -660T242 -637Q242 -610 205 -604T168 -543Q168 -496 213 -469Q246 -453 281 -438Q252 -428 229 -428Q209 -428 190 -446Q184 -434 178 -424T164 -414Q154 -424 150 -428Q137 -440
129 -446Q129 -430 123 -408H100Q100 -453 92 -459Q82 -467 53 -467Q25 -467 25 -436Q25 -403 41 -391Q57 -381 82 -381Q113 -385 117 -385Q129 -385 135 -373Q141 -360 145 -354H190Q203 -375 215 -389Q225 -406 244 -416L281 -408Q250 -387 219 -367Q197 -344
197 -309Q197 -250 254 -250L297 -256L303 -289Q303 -303 283 -313Q262 -326 250 -332Q258 -338 266 -342Q272 -348 285 -348Q315 -348 338 -328Q369 -299 369 -248Q369 -205 330 -170Q289 -135 258 -135Q238 -135 217 -156Q207 -164 199 -174H176Q193 -100 199
-55Q221 82 221 174V688Q221 915 205 1014Q186 1110 168 1133Q150 1122 137 1094T102 1065Q61 1065 61 1112Q61 1137 84 1151Q106 1163 137 1163H825Q840 1182 852 1213T893 1270Q897 1260 901 1251Z" />
<glyph unicode="g" glyph-name="g" horiz-adv-x="1229" d="M1153 391Q1153 231 1012 117T682 2Q428 2 248 168Q57 344 57 614Q57 819 221 981Q408 1165 705 1165Q827 1165 901 1145Q961 1118 1020 1094Q1038 1102 1053 1104L1042 1165Q1042 1192 1054 1207T1071
1227H1090L1063 846L1026 836Q989 979 905 1047Q819 1112 688 1112Q508 1112 408 983Q305 854 305 659Q305 401 350 293Q377 227 506 90H524Q532 150 553 172Q571 193 600 193Q614 193 625 190Q635 188 641 188Q584 236 543 303Q496 379 496 459Q496 555 565 635Q649
731 782 731Q928 731 1034 645Q1153 549 1153 391ZM952 401Q952 504 905 578Q856 651 778 651Q733 651 688 618Q633 578 633 518Q633 492 639 479Q643 465 653 446Q649 459 649 483Q649 516 666 541Q682 563 729 563Q778 563 811 539Q842 514 842 459Q844 436 844
432Q844 426 842 420Q834 401 825 383Q866 379 885 367Q918 344 918 295Q918 244 852 217Q801 197 733 197Q739 178 739 164Q739 121 670 63Q809 92 866 152Q952 242 952 401ZM733 426Q702 436 674 449Q668 442 662 436Q684 416 700 416Q719 422 733 426ZM817 285V303Q811
303 805 305Q782 313 774 313Q760 313 731 305Q700 297 688 293L782 266Q786 270 793 274Q799 279 817 285Z" />
<glyph unicode="h" glyph-name="h" horiz-adv-x="1278" d="M1210 539Q1210 383 1092 246Q1006 145 864 63Q760 2 733 2Q719 2 696 14Q674 25 674 41Q674 63 731 80Q879 123 944 250Q977 313 995 403Q1014 494 1014 551Q1014 702 936 813Q850 936 715 936Q524 936
446 807Q393 719 393 571Q393 545 395 510Q397 473 397 469Q397 236 406 201Q430 147 461 29Q305 29 223 20Q158 8 94 -2H72Q68 -2 63 -2Q55 12 43 29Q131 57 186 111Q240 162 240 258Q240 786 238 1092Q236 1395 233 1620Q233 1726 205 1787T113 1849Q74 1849
74 1882Q74 1903 92 1921Q109 1937 125 1937Q139 1919 164 1905Q186 1890 219 1890Q303 1890 369 1913Q432 1935 477 1987H532Q537 1970 541 1956Q541 1925 502 1921T461 1913Q440 1884 428 1753Q414 1622 414 1407Q414 1303 410 1106Q406 909 406 877Q477 936
555 977Q631 1018 737 1018Q922 1018 1069 860Q1210 709 1210 539ZM739 850Q739 831 725 819Q709 805 694 805Q657 805 657 854Q657 864 676 874Q692 885 707 885Q739 885 739 850Z" />
<glyph unicode="i" glyph-name="i" horiz-adv-x="639" d="M549 86Q549 39 475 39Q434 39 397 57Q385 51 354 20Q340 6 305 6Q279 6 268 14Q240 37 139 37Q92 37 78 49Q61 61 61 84Q61 109 88 121Q96 125 106 129H158L168 119L123 98V82L143 78Q172 78 193 121Q211
162 211 217V952Q205 989 201 1008Q184 1067 158 1092H131L123 1079Q123 1069 137 1063Q152 1057 168 1051Q141 1040 131 1040Q86 1040 74 1055Q61 1067 61 1087Q61 1114 77 1123T125 1133Q143 1133 180 1128Q215 1122 219 1122Q231 1124 258 1144T305 1165Q330
1165 350 1149Q369 1130 387 1112Q406 1116 424 1122Q442 1126 467 1126Q522 1126 539 1112Q549 1104 549 1085Q549 1051 510 1042Q504 1042 489 1040Q473 1040 446 1057Q459 1069 489 1085L473 1098Q424 1077 412 1034Q397 991 397 881V289Q397 217 408 170Q426
90 473 72L489 82Q465 96 446 102Q461 129 489 129Q530 129 543 109Q549 98 549 86Z" />
<glyph unicode="j" glyph-name="j" horiz-adv-x="614" d="M545 1085Q545 1038 516 1020Q508 1016 487 1012Q473 1012 461 1024Q449 1034 444 1038Q455 1055 467 1067Q477 1077 487 1087L471 1106Q422 1071 410 1001Q395 932 395 750V-55Q395 -70 399 -109Q414
-246 414 -276Q414 -301 412 -309Q381 -469 276 -530Q225 -561 209 -623L254 -614Q307 -614 307 -659Q307 -698 291 -709T227 -721Q172 -721 152 -706T131 -662Q131 -647 139 -612Q143 -594 143 -584Q143 -575 141 -571T104 -553Q70 -539 70 -516Q70 -475 111 -450T190
-401Q174 -389 162 -377Q147 -367 147 -342Q147 -313 178 -289Q207 -266 246 -266Q276 -266 289 -279Q299 -293 299 -317Q299 -328 297 -344T295 -369Q319 -356 328 -342Q344 -315 344 -279Q344 -242 319 -223Q293 -207 256 -207Q231 -207 215 -209Q197 -213 166
-223Q178 -152 184 -72T190 72Q190 195 195 279Q209 571 209 610Q209 903 199 977Q186 1051 158 1096L115 1087Q133 1059 158 1047V1012Q143 1008 131 1004Q96 1004 76 1036Q53 1069 53 1094Q53 1137 70 1153Q86 1167 117 1167Q141 1167 178 1157Q213 1147 217
1147Q229 1151 256 1184T303 1217Q328 1217 348 1190Q367 1159 385 1130Q403 1139 422 1147Q438 1155 465 1155Q510 1155 527 1141T545 1085ZM285 -453H242Q215 -477 203 -477Q182 -477 150 -496Q162 -500 176 -504Q193 -504 229 -485Q264 -469 285 -453Z" />
<glyph unicode="k" glyph-name="k" horiz-adv-x="1303" d="M1231 514Q1231 279 1049 100Q981 35 795 -82H768Q864 20 961 125Q1040 264 1040 459Q1040 588 975 692Q893 823 743 823Q602 823 553 752Q518 700 518 571Q518 541 518 510Q518 479 520 446Q520 340
526 238Q530 135 538 96T672 53Q795 49 809 16Q440 16 360 20Q281 23 233 27L145 16Q145 -66 109 -66Q92 -66 70 -48T47 -12Q47 37 70 51Q90 66 133 66Q164 63 180 63Q264 63 293 104Q319 145 319 225V1456Q319 1657 168 1671Q96 1677 96 1753Q96 1776 112 1801T162
1827Q211 1827 232 1796T254 1720Q313 1710 369 1704Q422 1696 465 1696Q737 1696 784 1784Q807 1827 883 1827Q922 1827 956 1796Q991 1763 991 1741Q991 1706 973 1686Q952 1663 922 1663Q895 1663 877 1681Q868 1690 844 1731Q829 1718 819 1706Q807 1694 807
1688Q807 1626 971 1507Q1135 1389 1135 1221Q1135 1120 1055 1036Q881 922 879 920Q975 891 1071 864Q1231 770 1231 514ZM909 1221Q909 1290 864 1376Q756 1587 743 1677H719Q649 1663 612 1642Q545 1604 545 1440Q545 1317 539 1214Q520 905 520 850Q635 905
750 963Q909 1067 909 1221Z" />
<glyph unicode="l" glyph-name="l" horiz-adv-x="1450" d="M1399 51Q1399 35 1376 20T1325 4Q1313 4 1294 14Q1245 41 1233 43Q1225 45 1214 45Q1186 45 1133 33Q1059 14 1028 14Q936 14 834 51Q608 133 561 133Q432 133 332 61Q229 -12 205 -12Q190 -12 182 -10L188
-27Q162 -47 156 -47Q143 -39 117 -39Q98 -39 86 -41L109 -70L80 -78Q61 -63 53 -57Q27 -35 27 -29Q35 -16 39 -8Q72 43 102 66Q104 55 106 47Q109 37 109 14Q123 6 131 -4Q133 6 137 16Q139 27 139 41Q139 61 131 88H174Q176 70 184 57Q190 43 197 35Q197 109
330 207Q461 303 461 537Q461 676 379 903T297 1333Q297 1466 336 1565Q379 1657 424 1751Q422 1759 422 1767Q420 1776 414 1786H369Q367 1769 367 1761Q367 1753 369 1733Q369 1722 369 1714Q370 1710 370 1706Q370 1702 369 1698H326Q297 1726 297 1747Q297
1778 324 1804Q350 1831 383 1831Q453 1831 453 1776Q453 1755 432 1720L446 1712Q453 1712 584 1804Q645 1847 692 1847Q754 1847 766 1817Q774 1763 786 1726Q819 1759 819 1778Q819 1788 809 1823Q817 1815 838 1790Q852 1774 852 1767Q850 1755 850 1739Q850
1692 831 1673Q813 1655 770 1655Q719 1655 698 1702Q688 1726 680 1786H635Q592 1767 573 1761Q541 1747 512 1720Q580 1704 614 1696Q647 1686 647 1642Q647 1610 629 1587Q608 1565 569 1565Q565 1565 553 1575Q539 1583 518 1583L485 1579V1608Q512 1632 528
1632Q549 1630 569 1630Q573 1634 580 1640Q584 1647 584 1655L578 1675Q563 1683 557 1683Q492 1683 463 1649Q432 1612 432 1548Q432 1499 487 1339Q565 1118 590 1032Q647 838 647 723Q647 514 547 369Q422 229 375 162L389 154Q457 207 531 248T690 289Q799
289 879 188Q958 88 1010 88Q1028 88 1036 90Q1044 90 1053 94Q1061 100 1061 111Q1061 119 985 141Q909 164 909 238L915 258Q926 262 938 268Q948 254 961 242Q985 215 1051 215Q1090 215 1106 197T1122 150Q1122 129 1120 111Q1120 100 1120 94Q1119 90 1119
87Q1119 83 1120 80Q1149 96 1182 115Q1212 133 1231 133Q1251 133 1284 96Q1307 70 1319 57Q1329 76 1339 90Q1350 104 1362 104Q1378 104 1388 90T1399 51ZM240 14Q225 27 213 41Q207 37 203 35Q217 14 223 14Q229 14 240 14Z" />
<glyph unicode="m" glyph-name="m" horiz-adv-x="1589" d="M1524 25Q1524 -14 1485 -14Q1466 -14 1450 0Q1434 12 1415 29Q1403 33 1360 33Q1319 33 1206 29Q1094 25 1051 25H1022Q1006 25 993 29V55Q1038 61 1069 67T1139 106V510L1110 922H1087Q1087 897 1047
776T932 459Q868 283 807 109Q774 23 760 23Q715 94 682 168Q631 283 565 467Q524 584 492 676Q428 850 387 922Q377 817 371 737T350 528V82Q369 80 388 76T418 72Q434 72 465 82L473 37Q449 29 410 29Q379 29 313 37Q248 45 221 45Q190 45 176 39Q162 31 143
8Q125 -14 106 -14Q74 -14 74 29Q74 59 86 72Q96 82 115 82H141Q180 82 201 98Q233 125 248 188Q262 252 266 369Q270 485 272 494Q283 543 305 848Q319 1036 319 1067Q319 1104 311 1116Q301 1126 279 1126Q250 1124 231 1124Q205 1124 180 1133L197 1167H627Q639
1159 649 1159V1133Q602 1133 588 1126Q571 1120 571 1087Q571 1018 671 725T811 362Q815 362 866 489Q928 639 969 797Q1026 1012 1026 1167Q1040 1167 1099 1159T1204 1151Q1339 1151 1366 1198Q1378 1221 1409 1221Q1421 1212 1427 1208Q1448 1190 1448 1167Q1448
1124 1366 1104Q1315 1092 1294 1071V782Q1305 653 1309 584Q1323 381 1331 315T1345 184T1364 96Q1374 74 1450 72Q1524 70 1524 25Z" />
<glyph unicode="n" glyph-name="n" horiz-adv-x="1270" d="M1200 -190L1165 -199Q1151 -154 1145 -125Q1139 -98 1139 -82Q1139 -57 1139 -31Q1139 -6 1141 18L614 -8V18Q717 123 807 274Q946 508 946 696Q946 838 868 950Q791 1063 686 1063Q559 1063 494 967Q436
883 436 754V264Q436 96 469 66Q504 41 539 18H74L47 45Q55 57 70 66Q84 72 113 72H150Q199 72 221 96Q252 131 252 238V881Q252 993 168 1032Q106 1051 47 1069Q90 1094 121 1094Q123 1094 203 1075Q248 1065 293 1065Q332 1065 385 1071Q500 1114 588 1143Q674
1171 717 1171Q854 1171 1008 1067Q1184 946 1184 791V608Q1184 508 1085 371Q985 231 803 119V100Q811 94 819 90Q887 90 989 158Q1094 238 1200 317V-190Z" />
<glyph unicode="o" glyph-name="o" horiz-adv-x="1212" d="M1145 594Q1145 334 983 172Q819 8 571 8Q350 8 197 209Q55 393 55 604Q55 776 178 944Q338 1161 604 1161Q829 1161 987 997Q1145 834 1145 594ZM905 676Q905 909 821 1001Q752 1077 618 1077Q424 1077
352 979Q279 879 279 618Q279 311 362 195Q436 92 584 92Q772 92 844 240Q905 367 905 676ZM647 999Q647 985 623 967Q598 946 584 946Q565 954 555 956V1012Q559 1026 563 1034Q567 1040 596 1040Q608 1040 621 1034Q647 1020 647 999ZM631 197Q631 168 621 160Q608
150 584 150Q537 150 537 193Q537 207 551 221Q563 233 584 233Q631 233 631 197Z" />
<glyph unicode="p" glyph-name="p" horiz-adv-x="1401" d="M1327 606Q1327 379 1157 217Q985 53 770 53Q692 53 627 76Q524 111 502 115V-641Q502 -713 465 -762T365 -811Q283 -811 283 -729Q283 -715 309 -694Q334 -676 346 -676Q377 -676 387 -692Q395 -721
401 -739Q428 -709 430 -707Q446 -684 446 -668Q446 -623 410 -608Q371 -594 305 -594Q285 -594 266 -594Q248 -594 231 -596Q244 -514 268 -453Q276 -432 276 -416Q276 -168 281 2Q295 594 295 672Q295 795 270 891Q246 987 207 987Q186 987 174 963Q145 905 90
905Q72 905 53 936Q33 965 33 989Q33 1026 70 1049Q104 1069 145 1069Q152 1069 254 1034Q307 1016 356 1016Q418 1016 492 1053Q664 1139 780 1139Q1012 1139 1178 952Q1327 784 1327 606ZM1040 606Q1040 801 965 936Q889 1069 774 1069Q596 1069 539 907Q500
799 500 516Q500 487 500 461Q498 432 498 406Q498 252 535 199Q588 123 756 123Q897 123 977 299Q1040 440 1040 606ZM807 950Q788 946 770 942L725 961V987Q735 1004 741 1010Q745 1016 764 1016Q782 1016 790 1006T807 987V950ZM807 223Q807 197 793 188Q776
180 756 180Q743 180 731 193Q717 203 717 213Q727 229 733 236Q752 258 766 258Q780 252 786 248Q807 236 807 223Z" />
<glyph unicode="q" glyph-name="q" horiz-adv-x="1343" d="M2431 -500Q2431 -530 2404 -543Q2378 -557 2351 -557Q2320 -557 2310 -551Q2296 -535 2281 -520H2318L2339 -492Q2322 -479 2308 -467Q2288 -455 2247 -455Q2163 -471 2081 -483Q1997 -498 1896 -498Q1675
-498 1513 -418Q1477 -399 1237 -236Q1055 -111 866 -49Q852 -45 600 -6Q281 43 143 287Q113 340 82 393Q55 467 55 561Q55 813 242 993Q428 1174 672 1174Q909 1174 1087 999Q1266 825 1266 590Q1266 397 1180 268Q1087 131 885 35Q1010 20 1096 8Q1262 -16 1382
-106Q1419 -133 1554 -260Q1751 -442 1858 -442Q1888 -442 1907 -428Q1923 -416 1944 -387Q1935 -371 1917 -350H1896Q1890 -358 1884 -371Q1878 -383 1878 -406H1841Q1833 -393 1823 -377Q1810 -362 1810 -360Q1810 -326 1839 -299T1905 -272Q1946 -272 1962 -285Q1980
-307 1999 -324Q2015 -311 2050 -285Q2073 -266 2122 -266Q2169 -266 2183 -291Q2198 -315 2198 -360Q2198 -389 2198 -418Q2222 -418 2244 -412T2275 -406Q2322 -406 2378 -430Q2431 -457 2431 -500ZM2122 -354Q2122 -348 2111 -346Q2101 -344 2093 -342Q2068
-381 2062 -387Q2040 -412 2019 -436Q2075 -412 2099 -389Q2122 -369 2122 -354ZM1032 485V748Q1032 944 885 1038Q780 1106 657 1106Q489 1106 393 936Q309 788 309 584Q309 352 379 229Q475 61 709 61Q815 61 920 184Q1032 317 1032 485ZM741 1026Q741 1010 721
991Q709 981 696 973Q694 975 682 985Q668 993 668 1016Q668 1028 676 1044Q682 1059 686 1067Q700 1061 720 1053T741 1026ZM713 168Q713 156 707 143T696 119Q686 117 682 115Q678 111 678 109Q666 119 653 133T639 168Q645 180 649 184Q664 203 676 203Q713
203 713 168Z" />
<glyph unicode="r" glyph-name="r" horiz-adv-x="1229" d="M1165 8L1157 -45H1135Q1120 -14 1102 0Q1077 20 1038 20Q1026 20 995 16Q965 12 948 12Q901 12 862 43Q809 84 762 178Q727 297 700 356Q653 459 489 598H399V262Q436 119 455 86Q471 51 496 51Q539
51 569 20Q516 20 373 10Q315 6 262 6Q211 6 150 12Q131 12 109 31Q84 49 84 76Q84 96 98 111Q111 123 127 123Q158 123 158 90V66Q170 57 178 57Q209 57 231 119Q254 178 254 281V842Q254 911 238 987T190 1102H158Q166 1063 166 1055Q166 1026 152 1012T119 997Q96
997 80 1020Q61 1040 61 1059Q61 1114 94 1136T186 1159Q240 1159 281 1141Q322 1120 367 1120Q381 1120 496 1151Q557 1167 625 1167Q752 1167 840 1096Q940 1014 940 864Q940 713 864 647Q797 604 731 561Q889 379 922 154Q932 84 969 84Q981 84 993 84Q995 96
1014 113Q1006 131 981 150Q985 162 989 176Q1001 197 1032 197Q1085 197 1085 147Q1085 135 1077 94Q1104 86 1130 80Q1165 63 1165 8ZM762 874Q762 975 709 1038Q655 1102 582 1102Q504 1102 457 1061Q408 1018 408 963V672Q479 672 541 649Q602 627 623 627Q686
627 727 717Q762 793 762 874ZM618 1044Q618 1034 612 1030T602 1018H569L553 1055L569 1073H610Q614 1059 618 1044ZM635 690Q621 680 606 672Q590 678 578 682V729H635V690Z" />
<glyph unicode="s" glyph-name="s" horiz-adv-x="1098" d="M543 983Q528 973 514 965Q496 973 485 973Q479 987 475 1001Q475 1010 485 1020Q494 1028 494 1030H532L543 983ZM1020 352Q1020 197 895 100Q780 12 614 12Q508 12 401 33Q295 53 184 76Q147 76 139
43Q129 8 123 -25Q109 -20 96 -18Q84 -10 72 35L123 457Q164 326 217 250Q319 104 571 104Q678 104 754 145Q844 195 844 281Q844 403 639 451Q285 530 258 543Q53 637 53 879Q53 965 154 1061Q262 1165 377 1165H582Q614 1165 705 1137Q795 1104 885 1073Q922
1073 934 1122Q954 1200 993 1247Q995 1227 995 1217Q995 1186 975 1030T954 737Q885 887 762 985Q627 1094 440 1094Q344 1094 272 1036Q201 979 201 907Q201 766 412 715Q608 674 807 633Q1020 557 1020 352ZM569 176Q569 168 569 160Q565 158 553 139H504Q498
158 492 176L543 211Q551 211 561 207Q569 201 569 176Z" />
<glyph unicode="t" glyph-name="t" horiz-adv-x="1221" d="M1155 889Q1067 961 1008 977T834 993Q608 993 479 848Q358 711 358 489Q358 303 444 201T676 98Q750 98 803 122T885 201Q840 201 825 213Q809 223 809 246Q809 254 819 289Q823 303 823 311Q823 336
791 346Q756 354 700 354Q680 354 659 354Q639 352 621 352Q641 328 702 295Q741 274 741 221Q741 195 717 170T659 145Q618 145 590 162Q551 184 551 225Q551 248 559 258Q565 266 575 276Q590 260 606 244Q621 225 637 211Q653 223 653 236Q586 291 532 354Q479
416 479 498Q485 549 496 578Q559 756 764 756Q920 756 1020 655Q1118 553 1118 399Q1118 221 958 109Q823 12 678 12Q451 12 272 149T92 475Q92 676 291 838Q506 973 532 991Q510 999 492 1001Q473 1004 451 1004Q406 1001 379 1001Q139 1001 121 963Q92 905 59
879L49 1274L68 1292Q121 1196 309 1163Q428 1143 678 1143L1077 1151Q1104 1182 1112 1210Q1120 1239 1147 1266L1155 889ZM926 389Q926 498 887 580Q838 682 748 682Q674 682 625 631Q584 588 584 551Q584 532 625 506Q631 502 645 494Q659 498 674 502Q668 502
662 502Q639 502 631 508Q610 522 610 559Q610 580 635 598Q657 616 682 616Q723 616 745 596Q768 575 768 522Q768 481 735 457Q719 444 674 428Q709 428 739 428Q770 428 799 430Q870 430 895 410T920 315Q924 338 926 352Q926 365 926 389ZM909 248V305Q887
270 883 264Q877 258 866 248H909ZM655 428Q627 434 600 440Q596 438 594 436Q625 426 633 426Q641 428 655 428Z" />
<glyph unicode="u" glyph-name="u" horiz-adv-x="1434" d="M1364 113Q1364 84 1339 59T1268 33Q1176 33 1116 106Q1079 162 1044 219Q1030 164 1030 143Q1030 123 1047 113Q1061 100 1061 78Q1061 49 1044 37Q1026 23 1001 23Q954 23 954 68Q954 78 973 106Q991
135 991 166Q991 178 981 209Q913 133 846 59Q760 6 621 6Q342 6 195 164Q59 307 59 545Q59 670 143 815Q197 895 250 977Q150 977 150 1020Q150 1040 168 1075Q141 1083 127 1083Q111 1075 96 1075Q59 1075 59 1120Q59 1157 80 1167Q98 1176 152 1182Q152 1272
231 1272Q262 1272 289 1255Q313 1237 313 1208Q313 1190 305 1171Q420 1159 450 1157T571 1155Q418 1036 356 903Q287 754 287 504Q287 336 401 211Q514 84 655 84Q819 84 879 211Q920 297 920 489Q920 530 920 571Q918 610 918 651Q918 821 907 956Q897 1092
881 1110T815 1130Q766 1133 754 1137L762 1163H1309Q1319 1149 1323 1141T1327 1120Q1327 1083 1286 1083Q1257 1083 1249 1105T1219 1128Q1178 1128 1157 1014Q1137 897 1137 635Q1137 600 1137 569Q1135 539 1135 512Q1135 309 1169 211Q1204 113 1264 84Q1270
109 1280 137Q1290 166 1319 166Q1325 166 1346 147Q1364 127 1364 113ZM707 158Q688 154 670 150Q635 150 635 184Q635 195 643 209Q649 221 653 227H698Q700 219 705 213Q707 205 707 158ZM389 1094L328 1102Q297 1102 272 1094Q246 1083 221 1075Q238 1067 254
1067Q270 1067 290 1077T313 1087Q324 1087 324 1053Q324 1042 317 1032Q311 1022 305 1012Q319 1038 326 1044Q332 1051 389 1094Z" />
<glyph unicode="v" glyph-name="v" horiz-adv-x="1188" d="M1143 1124Q1143 1108 1133 1096T1102 1083Q1081 1083 1071 1098Q1061 1110 1055 1122Q997 1083 907 864Q870 776 743 418Q641 131 586 20Q561 45 475 301Q387 557 381 575Q268 928 229 1014Q190 1098
147 1098Q125 1098 106 1055Q96 1032 76 1032Q59 1032 51 1047Q41 1061 41 1077Q41 1085 49 1098Q68 1126 80 1133L494 1159Q504 1159 518 1155Q530 1149 532 1149Q504 1122 492 1108Q465 1077 465 1022Q465 977 540 682T639 340Q668 375 773 695T879 1059Q879
1083 852 1100Q813 1124 797 1149H971Q983 1149 1020 1157T1079 1165Q1102 1165 1122 1155Q1143 1145 1143 1124Z" />
<glyph unicode="w" glyph-name="w" horiz-adv-x="2048" d="M1991 115Q1991 82 1962 59Q1933 37 1886 37Q1786 37 1733 98Q1679 182 1645 221Q1626 174 1626 145Q1626 125 1644 113T1663 80Q1663 61 1647 43T1597 25Q1575 25 1559 39T1542 68Q1542 78 1563 109Q1581
137 1581 170L1575 213Q1505 137 1436 63Q1350 8 1210 8Q1100 8 1026 20Q958 37 891 53Q844 35 784 23Q723 8 651 8Q350 8 188 166Q41 311 41 547Q41 676 127 809Q188 893 250 977Q141 977 141 1026Q141 1047 158 1075Q127 1085 113 1085Q106 1085 100 1081Q92
1075 80 1075Q41 1075 41 1120Q41 1159 84 1174Q133 1182 139 1182Q139 1233 160 1253Q178 1272 229 1272Q319 1272 319 1208Q319 1192 309 1171L1931 1163Q1942 1149 1946 1141T1950 1120Q1950 1083 1907 1083Q1878 1083 1864 1105T1831 1128Q1743 1128 1743 635Q1743
600 1743 569Q1741 537 1741 506Q1741 309 1782 205Q1817 115 1882 88Q1892 129 1898 141Q1913 170 1942 170Q1952 170 1972 150Q1991 127 1991 115ZM1491 653Q1491 913 1483 977Q1473 1038 1464 1094H1184Q979 1094 887 850Q825 690 825 506Q825 373 926 250Q1042
106 1210 106Q1393 106 1452 223Q1493 303 1493 514Q1493 547 1493 582Q1491 616 1491 653ZM399 1094Q381 1094 367 1094Q350 1094 336 1096Q295 1096 217 1075L240 1057Q254 1063 272 1071Q289 1077 309 1083Q317 1079 319 1077Q330 1067 330 1053Q330 1042 328
1038Q317 1026 309 1014Q324 1036 352 1059Q356 1063 399 1094ZM918 1094H518Q418 997 360 856Q297 698 297 506Q297 311 459 188Q471 180 637 96H768Q707 168 647 242Q559 375 559 547Q559 729 698 887Q866 1038 918 1094Z" />
<glyph unicode="x" glyph-name="x" horiz-adv-x="1237" d="M1178 950Q1178 866 1137 825Q1108 797 1010 756H936Q942 772 1001 823Q1049 864 1049 926Q1049 958 1012 991Q989 1012 967 1012Q934 1012 825 870Q717 729 717 674Q717 608 835 344T999 35H1090L1081
84Q1081 94 1092 111Q1100 125 1118 125Q1137 125 1155 106Q1171 86 1171 72Q1171 27 1141 10T1051 -8Q1016 -8 997 -6T907 6Q838 14 801 14Q705 14 659 -27Q637 -47 616 -70Q569 -70 569 -29Q569 27 643 39T717 102Q707 168 696 207Q666 324 612 406Q580 371 516
215Q414 -35 250 -35Q182 -35 129 6Q61 57 61 145Q61 233 123 334Q182 434 182 563Q254 526 254 422Q254 356 238 301Q229 276 221 252Q221 201 254 164Q285 125 324 125Q373 125 471 266Q569 408 569 498Q569 545 451 805Q330 1065 303 1092H248Q248 1055 238
1034Q225 1012 199 1012Q180 1012 162 1047Q160 1053 156 1065Q156 1120 211 1142T350 1165Q406 1165 444 1161Q483 1155 514 1145H676Q678 1178 682 1212Q690 1233 717 1233Q737 1233 752 1210Q764 1188 764 1174Q764 1110 668 1094Q569 1077 569 1071Q590 995
602 952Q643 817 684 756Q743 905 803 1055Q885 1178 1004 1178Q1061 1149 1090 1126Q1178 1053 1178 950Z" />
<glyph unicode="y" glyph-name="y" horiz-adv-x="1507" d="M1464 1174Q1430 1118 1317 1112Q1202 1104 1176 1087V860Q1176 698 1079 522Q963 309 729 117Q649 51 451 -59T180 -231Q61 -336 61 -457Q61 -512 90 -555Q127 -610 193 -610Q221 -610 237 -602T283
-557Q256 -561 238 -561Q215 -561 207 -545Q197 -530 197 -516Q197 -492 211 -474T258 -455Q297 -455 319 -485Q336 -508 336 -539Q336 -588 295 -616Q252 -647 195 -647Q115 -647 57 -592Q0 -537 0 -457Q0 -313 160 -162Q309 -20 459 119Q618 311 618 559Q618
670 582 791Q530 958 432 1040Q354 1106 182 1118Q8 1128 8 1219Q8 1270 55 1270Q88 1270 100 1253Q111 1237 111 1204V1165L1464 1174ZM930 815Q930 950 926 985Q911 1110 821 1110Q795 1110 764 1108Q733 1104 729 1104Q764 1012 780 850Q791 743 791 627Q791
461 758 377Q717 270 573 117Q776 301 840 412Q930 567 930 815Z" />
<glyph unicode="z" glyph-name="z" horiz-adv-x="1573" d="M1526 1167L901 682Q915 659 921 643T928 602Q928 510 866 471Q821 442 743 442Q705 442 688 444Q672 446 664 451Q600 416 563 391Q451 313 389 221Q397 217 408 213Q483 240 584 262Q682 283 768 283Q862
283 999 236Q1106 199 1260 125H1346Q1354 143 1354 156Q1339 170 1333 178Q1311 209 1311 231Q1311 264 1335 289Q1358 311 1386 311Q1434 311 1454 279Q1475 244 1475 197Q1475 80 1354 37Q1274 8 1122 8Q1014 8 799 55Q686 80 608 80Q426 80 307 59Q184 33 63
8H41L604 479Q586 514 582 528Q575 543 575 571Q575 680 645 727Q700 764 786 764Q836 764 868 758Q874 758 885 752Q940 793 973 817Q1077 897 1141 956Q1016 969 885 973Q623 983 362 983Q287 983 274 979T219 946Q233 918 252 901Q260 893 260 872Q260 840 240
827Q217 815 184 815Q139 815 115 830T90 885Q90 993 319 1087Q496 1159 739 1159Q864 1159 969 1143Q1202 1106 1233 1106Q1350 1106 1405 1141Q1479 1188 1526 1194V1167Z" />
<glyph unicode="{" glyph-name="braceleft" horiz-adv-x="0" />
<glyph unicode="|" glyph-name="bar" horiz-adv-x="0" />
<glyph unicode="}" glyph-name="braceright" horiz-adv-x="0" />
<glyph unicode="~" glyph-name="asciitilde" horiz-adv-x="0" />
</font>
</defs>
</svg>
